<svg width="1120" height="1120" viewBox="0 0 1120 1120" fill="none" xmlns="http://www.w3.org/2000/svg">
<rect width="1120" height="1120" rx="256" fill="#6D44C6"/>
<path fill-rule="evenodd" clip-rule="evenodd" d="M587.441 644.06L646.601 703.872L796.729 552.088C820.104 528.23 834.751 497.043 838.209 463.743C841.667 430.443 833.715 397.069 815.703 369.172C810.432 361.058 804.348 353.504 797.561 346.661L654.497 202.019C647.71 195.157 640.257 189.005 632.231 183.677C613.368 171.243 591.842 163.465 569.373 160.997C546.903 158.51 524.989 160.548 503.74 168.551L746.224 416.233C754.842 427.807 756.025 439.156 754.99 453.684C753.954 468.212 747.759 481.917 737.55 492.275L587.459 644.097L587.441 644.06Z" fill="white"/>
<path fill-rule="evenodd" clip-rule="evenodd" d="M536.005 253.982L476.035 194.422L323.85 345.566C300.155 369.323 285.307 400.378 281.802 433.538C278.296 466.697 286.357 499.931 304.616 527.71C309.959 535.79 316.127 543.312 323.007 550.126L468.03 694.158C474.91 700.991 482.465 707.116 490.601 712.422C509.723 724.804 531.544 732.549 554.321 735.007C577.098 737.483 599.313 735.453 620.852 727.485L375.047 480.847C366.311 469.322 365.112 458.021 366.161 443.554C367.211 429.088 373.491 415.441 383.839 405.126L535.987 253.945L536.005 253.982Z" fill="white"/>
<path fill-rule="evenodd" clip-rule="evenodd" d="M577.047 357.151L593.87 411.182H648.281C660.575 411.182 665.695 427.616 655.741 435.147L611.722 468.551L628.545 522.582C632.352 534.783 618.954 544.938 609.019 537.406L565 504.002L520.981 537.406C511.027 544.958 497.648 534.803 501.455 522.582L518.278 468.551L474.259 435.147C464.305 427.596 469.425 411.182 481.719 411.182H536.13L552.953 357.151C556.759 344.95 573.298 344.95 577.085 357.151H577.047Z" fill="white"/>
<path d="M887.118 957.878V864.176H849.414V834.121H959.999V864.176H922.115V957.878H887.118Z" fill="white"/>
<path d="M798.937 960C776.567 960 755.46 953.105 739.766 939.492L759.249 916.685C771.877 926.409 785.587 931.536 800.199 931.536C809.76 931.536 814.812 928.354 814.812 923.05V922.696C814.812 917.392 810.662 914.74 793.344 910.674C766.465 904.663 745.719 897.238 745.719 871.956V871.602C745.719 848.619 764.3 832 794.607 832C816.074 832 832.852 837.657 846.562 848.442L829.063 872.663C817.518 864.53 804.89 860.464 793.705 860.464C785.226 860.464 781.077 863.823 781.077 868.42V868.773C781.077 874.431 785.407 876.906 803.086 880.796C831.95 886.983 849.99 896.177 849.99 919.337V919.691C849.99 944.972 829.604 960 798.937 960Z" fill="white"/>
<path d="M636.043 957.878V834.121H737.608V863.116H670.68V882.033H731.294V909.082H670.68V928.707H738.51V957.878H636.043Z" fill="white"/>
<path d="M526.105 957.878V834.121H627.129V864.176H561.103V885.215H620.815V913.679H561.103V957.878H526.105Z" fill="white"/>
<path d="M391.68 957.878V834.121H424.332L476.287 899.535V834.121H510.924V957.878H480.436L426.316 889.989V957.878H391.68Z" fill="white"/>
<path d="M245.57 957.878L299.149 833.237H332.884L386.643 957.878H349.119L340.1 935.602H291.211L282.191 957.878H245.57ZM301.494 908.906H329.817L315.746 873.9L301.494 908.906Z" fill="white"/>
<path d="M160 957.878V834.121H261.024V864.176H194.997V885.215H254.71V913.679H194.997V957.878H160Z" fill="white"/>
</svg>
